<svg width="173" height="148" viewBox="0 0 173 148" fill="none" xmlns="http://www.w3.org/2000/svg">
<path d="M41.4554 45.664L41.457 45.664L140.325 45.4119C141.654 45.4086 142.929 45.9343 143.87 46.8731L150.729 53.7194L150.736 53.7265L150.743 53.7336L157.692 60.3938C158.675 61.3357 159.231 62.6376 159.233 63.9989L159.242 73.6242L159.242 73.6344L159.242 73.6445L159.446 83.2677C159.475 84.6287 158.948 85.9425 157.986 86.906L151.186 93.7186L151.179 93.7257L151.172 93.7331L144.514 100.68C143.571 101.664 142.267 102.22 140.905 102.22L42.1032 102.231L42.0926 102.231L42.0821 102.232L32.4588 102.436C31.0979 102.465 29.784 101.937 28.8206 100.976L22.008 94.176L22.0008 94.1689L21.9935 94.1619L15.0445 87.5016C14.0617 86.5597 13.5055 85.2578 13.5042 83.8966L13.4952 74.2712L13.4952 74.2611L13.495 74.2509L13.2908 64.6277C13.2619 63.2668 13.7891 61.9529 14.7508 60.9894L21.5505 54.1769L21.5577 54.1697L21.5647 54.1624L28.225 47.2134C29.1669 46.2306 30.4688 45.6744 31.83 45.6731L41.4554 45.664Z" stroke="#0101BF" stroke-width="2"/>
</svg>
