<svg width="212" height="58" xmlns="http://www.w3.org/2000/svg">
 <!-- Created with Method Draw - http://github.com/duopixel/Method-Draw/ -->

 <g>
  <title>background</title>
  <rect fill="none" id="canvas_background" height="60" width="214" y="-1" x="-1"/>
  <g display="none" overflow="visible" y="0" x="0" height="100%" width="100%" id="canvasGrid">
   <rect fill="url(#gridpattern)" stroke-width="0" y="0" x="0" height="100%" width="100%"/>
  </g>
 </g>
 <g>
  <title>Layer 1</title>
  <g stroke="null" id="svg_5">
   <path stroke="null" id="svg_4" fill="#0101BF" d="m15.667349,2.160961c1.12936,-1.158171 2.690362,-1.813712 4.322504,-1.815186l9.617299,-0.008937l161.737046,-0.24994c1.590677,-0.002455 3.117407,0.617043 4.244469,1.721986l6.855297,6.725998l6.943224,6.540875c1.179019,1.110049 1.845465,2.644359 1.847463,4.248593l0.008993,9.45295l0.20383,9.450789c0.033972,1.603743 -0.597503,3.152489 -1.750544,4.287778l-6.794348,6.689955l-6.652466,6.822536c-1.131059,1.159841 -2.693759,1.814891 -4.3274,1.815873l-161.667204,0.010803l-9.615201,0.200345c-1.631842,0.034373 -3.207132,-0.587286 -4.362371,-1.720611l-6.806837,-6.67817l-6.943324,-6.540678c-1.17832,-1.109755 -1.845165,-2.644752 -1.846764,-4.248495l-0.008993,-9.45295l-0.20403,-9.450789c-0.034671,-1.603841 0.597503,-3.152293 1.750544,-4.28768l6.794148,-6.690544l6.654664,-6.824501z"/>
  </g>
 </g>
</svg>