<svg width="212" height="58" xmlns="http://www.w3.org/2000/svg">
 <!-- Created with SVG Editor - http://github.com/mzalive/SVG Editor/ -->

 <g>
  <title>background</title>
  <rect fill="#ffffff"  id="canvas_background" height="60" width="214" y="-1" x="-1"/>
  <g display="none" overflow="visible" y="0" x="0" height="100%" width="100%" id="canvasGrid">
   <rect fill="url(#gridpattern)" stroke-width="0" y="0" x="0" height="100%" width="100%"/>
  </g>
 </g>
 <g>
  <title>Layer 1</title>
  <g stroke="null" id="svg_5">
   <path fill="#ffffff" fill-opacity="1" stroke="#0101BF" id="svg_4" stroke-width="2" d="m36.536494,1.555179l0.001372,0l150.797983,-0.238837c1.656826,-0.002641 3.247529,0.493238 4.419034,1.378216l8.559851,6.459063l0.008733,0.006697l0.008733,0.006697l8.669641,6.282388c1.226401,0.888469 1.920072,2.116516 1.922567,3.400594l0.011228,9.079288l0,0.009621l0,0.009527l0.254512,9.077307c0.036181,1.283795 -0.62131,2.523067 -1.82151,3.431911l-8.483747,6.42652l-0.008733,0.006603l-0.008733,0.006603l-8.306587,6.552919c-1.176496,0.928181 -2.803379,1.452641 -4.502624,1.452641l-150.71352,0.010376l-0.013225,0l-0.0131,0.000943l-12.006124,0.192428c-1.697872,0.027355 -3.337107,-0.470693 -4.539054,-1.377179l-8.499467,-6.414258l-0.008983,-0.006603l-0.009108,-0.006603l-8.669641,-6.282577c-1.226151,-0.888469 -1.920072,-2.116516 -1.921694,-3.4005l-0.011228,-9.079382l0,-0.009527l-0.00025,-0.009621l-0.254762,-9.077307c-0.036056,-1.283701 0.621684,-2.523067 1.82151,-3.431911l8.483373,-6.426049l0.008983,-0.006792l0.008733,-0.006886l8.309456,-6.554806c1.175124,-0.927049 2.799387,-1.451697 4.497634,-1.452924l12.008744,-0.008584z"/>
  </g>
 </g>
</svg>