<svg width="224" height="29" viewBox="0 0 224 29" fill="none" xmlns="http://www.w3.org/2000/svg">
<path d="M132.192 14.8459L137.565 12.0948C137.756 11.9971 137.876 11.7993 137.876 11.5834V5.49044C137.876 5.2732 137.754 5.07483 137.562 4.97745L131.65 1.81152C131.558 1.76213 131.455 1.73633 131.351 1.73633H114.893C114.579 1.73633 114.325 1.99297 114.325 2.30981V4.78185C114.325 4.99909 114.446 5.19746 114.639 5.29457L120.946 8.4752C121.025 8.51516 121.112 8.53569 121.2 8.53569H130.566C130.88 8.53569 131.135 8.79232 131.135 9.10917V11.362C131.135 11.6786 130.88 11.9355 130.566 11.9355H120.975C120.661 11.9355 120.407 12.1921 120.407 12.509V18.1617C120.407 18.4782 120.661 18.7351 120.975 18.7351H130.566C130.88 18.7351 131.135 18.9918 131.135 19.3086V21.5615C131.135 21.878 130.88 22.135 130.566 22.135H111.681C111.593 22.135 111.506 22.1558 111.427 22.1954L105.12 25.3761C104.927 25.4732 104.806 25.6718 104.806 25.8891V28.3611C104.806 28.6777 105.06 28.9346 105.374 28.9346H131.135H131.237H131.35C131.455 28.9346 131.557 28.9088 131.649 28.8597L137.565 25.6943C137.756 25.5966 137.876 25.3988 137.876 25.183V19.0894C137.876 18.8722 137.754 18.6738 137.562 18.5764L132.195 15.87C131.778 15.6597 131.776 15.0593 132.192 14.8459Z" fill="white"/>
<path d="M111.548 18.3362V5.44357C111.548 5.22633 111.426 5.02796 111.233 4.93085L104.926 1.74994C104.847 1.70998 104.76 1.68945 104.672 1.68945H81.7805C81.4666 1.68945 81.2119 1.94609 81.2119 2.26293V5.08927V8.48881V15.2884V22.0878V28.314C81.2119 28.6305 81.4664 28.8874 81.7805 28.8874H87.3848C87.6986 28.8874 87.9533 28.6308 87.9533 28.314V22.6613C87.9533 22.3447 88.2078 22.0878 88.5219 22.0878H104.807L111.237 18.8475C111.427 18.7496 111.548 18.552 111.548 18.3362ZM104.806 11.8886V11.9408V14.715C104.806 15.0315 104.552 15.2884 104.238 15.2884H88.4881C88.1927 15.2884 87.9531 15.0468 87.9531 14.7485V14.715V11.2192V9.06229C87.9531 8.74545 88.2075 8.48881 88.5216 8.48881H104.238C104.552 8.48881 104.806 8.74545 104.806 9.06229V11.8886H104.806Z" fill="white"/>
<path d="M77.7932 4.93082L71.4864 1.75018C71.4075 1.71051 71.3205 1.6897 71.2322 1.6897H36.3123C36.1239 1.6897 35.9432 1.76572 35.8109 1.90111L30.6266 7.58542C30.5257 7.68863 30.3515 7.61649 30.3515 7.47139V2.40995C30.3515 2.01736 30.036 1.69885 29.6468 1.69885H24.6056C24.2164 1.69885 23.9009 2.01708 23.9009 2.40967V7.55018C23.9009 7.69473 23.7273 7.76714 23.6261 7.66449L18.3131 1.89279C18.1907 1.76877 18.024 1.69885 17.8504 1.69885H6.79369C6.71337 1.69885 6.6347 1.72299 6.56813 1.76821L0.951744 5.56977L0.178796 6.09526C0.0668421 6.171 0 6.29807 0 6.43402V6.60381V7.9178C0 8.2327 0.255265 8.49044 0.56747 8.49044H15.2521C15.2947 8.49044 15.3357 8.50765 15.3657 8.53789L22.6595 15.4993C22.7222 15.5625 22.7225 15.6649 22.6598 15.7284L15.9546 22.1349C15.9244 22.1655 15.8834 22.1827 15.8408 22.1827H0.746541C0.455242 22.1827 0.218956 22.421 0.218956 22.7148V24.0801V24.2499C0.218956 24.3859 0.285798 24.5127 0.397752 24.5887L1.1707 25.1142L6.78681 28.9304C6.85365 28.9759 6.9326 29.0001 7.0132 29.0001L18.4171 29.0003C18.6055 29.0003 18.7862 28.9243 18.9185 28.7889L23.6255 23.5921C23.7265 23.4889 23.9006 23.561 23.9006 23.7061V28.2382C23.9006 28.6308 24.2161 28.949 24.6053 28.949H29.6463C30.0355 28.949 30.351 28.6308 30.351 28.2382V23.6875C30.351 23.543 30.5246 23.4706 30.6258 23.5732L35.3419 28.7401C35.4742 28.8741 35.6541 28.9496 35.8414 28.9496H50.3351C50.7244 28.9496 51.0399 28.6313 51.0399 28.2387V22.8938C51.0399 22.5012 50.7244 22.1829 50.3351 22.1829H38.4031C38.3605 22.1829 38.3195 22.1657 38.2893 22.1352L31.5621 15.7087C31.4997 15.6455 31.4997 15.5434 31.5619 15.4801L38.7742 8.53733C38.8045 8.50654 38.8454 8.48933 38.8884 8.48933H70.7371C71.051 8.48933 71.3057 8.74597 71.3057 9.06281V11.5349C71.3057 11.7521 71.1841 11.9507 70.9915 12.0479L63.9902 14.7763C63.5713 14.9877 63.5713 15.5906 63.9902 15.802L70.9915 18.5304C71.1841 18.6275 71.3057 18.8261 71.3057 19.0434V21.5154C71.3057 21.8322 71.0512 22.0889 70.7371 22.0889H61.4483C61.1344 22.0889 60.8797 21.8322 60.8797 21.5154V12.0465C60.8797 11.7751 60.6616 11.5551 60.3925 11.5551H54.6254C54.3564 11.5551 54.1383 11.7751 54.1383 12.0465V22.0881V28.3142C54.1383 28.6308 54.3927 28.8877 54.7068 28.8877H60.8797H71.2658C71.3318 28.8877 71.3967 28.8722 71.4556 28.8425L77.796 25.6471C77.9869 25.5495 78.1071 25.3516 78.1071 25.1358V19.0425C78.1071 18.8253 77.9855 18.6269 77.7929 18.5295L72.4263 15.8231C72.0088 15.6125 72.0068 15.0121 72.4233 14.799L77.796 12.0479C77.9869 11.9502 78.1071 11.7524 78.1071 11.5365V5.44381C78.1076 5.22657 77.986 5.02792 77.7932 4.93082Z" fill="white"/>
<path d="M148.041 1.26636H149.231V3.05255H150.05L150.751 1.26636H151.986L151.041 3.61216L152.046 6.02483H150.81L150.057 4.16539H149.231V6.02483H148.041V4.16539H147.216L146.462 6.02483H145.226L146.231 3.61216L145.286 1.26636H146.522L147.222 3.05255H148.041V1.26636H148.041Z" fill="white"/>
<path d="M154.169 4.13237V4.93197H156.621V6.0251H152.94V1.26636H156.561V2.35949H154.169V3.06615H155.993V4.13237H154.169Z" fill="white"/>
<path d="M157.197 4.82515H157.382C157.865 4.82515 158.037 4.73193 158.037 3.37911V1.26636H161.69V6.02483H160.461V2.35949H159.173V3.4124C159.173 5.6783 158.591 6.02483 157.389 6.02483H157.197V4.82515V4.82515Z" fill="white"/>
<path d="M164.071 4.13237V4.93197H166.522V6.0251H162.841V1.26636H166.462V2.35949H164.07V3.06615H165.894V4.13237H164.071Z" fill="white"/>
<path d="M169.357 2.27276C169 2.27276 168.71 2.37264 168.657 2.69919H167.381C167.467 1.71953 168.24 1.18628 169.384 1.18628C170.526 1.18628 171.233 1.71953 171.233 2.51247C171.233 3.00577 171.002 3.29237 170.771 3.41888V3.6056C171.148 3.73878 171.392 4.06561 171.392 4.62522C171.392 5.47836 170.626 6.11149 169.377 6.11149C168.003 6.11149 167.316 5.51166 167.216 4.49204H168.512C168.584 4.8186 168.849 5.01836 169.37 5.01836C169.826 5.01836 170.104 4.8383 170.104 4.56529C170.104 4.27869 169.886 4.12526 169.437 4.12526H168.783V3.06597H169.437C169.853 3.06597 169.972 2.88591 169.972 2.6659C169.972 2.39955 169.681 2.27276 169.357 2.27276Z" fill="white"/>
<path d="M176.588 1.26636V6.02483H175.359V4.13875H173.607V6.02483H172.378V1.26636H173.607V3.02592H175.359V1.26636H176.588Z" fill="white"/>
<path d="M182.251 3.64562C182.251 5.05865 181.419 6.11156 179.893 6.11156C178.366 6.11156 177.534 5.05865 177.534 3.64562C177.534 2.23287 178.366 1.17969 179.893 1.17969C181.419 1.17969 182.251 2.23287 182.251 3.64562ZM180.996 3.64562C180.996 2.84575 180.626 2.27282 179.893 2.27282C179.159 2.27282 178.789 2.83937 178.789 3.64562C178.789 4.4455 179.159 5.01843 179.893 5.01843C180.626 5.01843 180.996 4.4455 180.996 3.64562Z" fill="white"/>
<path d="M184.427 6.02483H183.198V1.26636H186.719V2.35949H184.427V6.02483Z" fill="white"/>
<path d="M192.054 3.64562C192.054 5.05865 191.221 6.11156 189.695 6.11156C188.168 6.11156 187.336 5.05865 187.336 3.64562C187.336 2.23287 188.168 1.17969 189.695 1.17969C191.221 1.17969 192.054 2.23287 192.054 3.64562ZM190.798 3.64562C190.798 2.84575 190.428 2.27282 189.695 2.27282C188.961 2.27282 188.591 2.83937 188.591 3.64562C188.591 4.4455 188.961 5.01843 189.695 5.01843C190.428 5.01843 190.798 4.4455 190.798 3.64562Z" fill="white"/>
<path d="M195.26 1.26636C196.376 1.26636 197.024 1.83956 197.024 2.83254C197.024 3.83883 196.376 4.42535 195.26 4.42535H194.228V6.02483H192.999V1.26636H195.26ZM195.101 3.36551C195.583 3.36551 195.768 3.19238 195.768 2.85251C195.768 2.51237 195.583 2.3459 195.101 2.3459H194.229V3.36551H195.101V3.36551Z" fill="white"/>
<path d="M202.099 4.40555C201.974 5.41212 201.227 6.11156 200.064 6.11156C198.611 6.11156 197.765 5.12496 197.765 3.64562C197.765 2.16628 198.611 1.17969 200.064 1.17969C201.181 1.17969 201.901 1.83279 202.059 2.73921H200.784C200.705 2.42625 200.434 2.27282 200.064 2.27282C199.377 2.27282 199.02 2.83937 199.02 3.64562C199.02 4.4455 199.377 5.01843 200.064 5.01843C200.487 5.01843 200.778 4.80507 200.837 4.40555H202.099V4.40555Z" fill="white"/>
<path d="M203.052 1.26636H204.281V3.01926H205.232L206.045 1.26636H207.281L206.224 3.57887L207.34 6.02483H206.105L205.239 4.13237H204.281V6.02483H203.052V1.26636H203.052Z" fill="white"/>
<path d="M209.225 1.26636V4.27193H209.41L210.804 1.26636H212.383V6.02483H211.26V3.01926H211.075L209.681 6.02483H208.102V1.26636H209.225Z" fill="white"/>
<path d="M214.658 1.26626V4.27183H214.843L216.237 1.26626H217.816V6.02473H216.693V3.01916H216.508L215.113 6.02473H213.534V1.26626H214.658ZM214.367 0H215.239C215.285 0.139833 215.391 0.306577 215.675 0.306577C215.959 0.306577 216.065 0.14011 216.112 0H216.983C216.904 0.613155 216.488 1.01961 215.675 1.01961C214.862 1.01961 214.446 0.613155 214.367 0Z" fill="white"/>
<path d="M148.921 10.7477C149.205 10.8876 149.509 11.241 149.509 11.7074C149.509 12.507 149.007 13.1071 147.87 13.1071H145.485V8.34839H147.798C148.875 8.34839 149.383 8.93491 149.383 9.64795C149.383 10.0744 149.185 10.4079 148.921 10.561V10.7477ZM146.714 10.1679H147.632C147.897 10.1679 148.121 10.0744 148.121 9.76142C148.121 9.44818 147.884 9.3483 147.619 9.3483H146.714V10.1679H146.714ZM147.673 12.0875C147.957 12.0875 148.247 11.981 148.247 11.6408C148.247 11.2879 148.003 11.1678 147.692 11.1678H146.714V12.0875H147.673Z" fill="white"/>
<path d="M154.783 13.1069H153.561L153.217 11.8742H151.632L151.294 13.1069H150.098L151.512 8.34839H153.369L154.783 13.1069ZM151.896 10.9012H152.946L152.57 9.52143H152.279L151.896 10.9012Z" fill="white"/>
<path d="M156.767 13.1069H155.538V8.34839H159.06V9.44152H156.767V13.1069Z" fill="white"/>
<path d="M164.393 10.7279C164.393 12.1409 163.561 13.1938 162.035 13.1938C160.508 13.1938 159.676 12.1409 159.676 10.7279C159.676 9.31515 160.508 8.26196 162.035 8.26196C163.561 8.26196 164.393 9.31515 164.393 10.7279ZM163.138 10.7279C163.138 9.9283 162.768 9.3551 162.035 9.3551C161.301 9.3551 160.931 9.92164 160.931 10.7279C160.931 11.5275 161.301 12.1007 162.035 12.1007C162.768 12.1007 163.138 11.5275 163.138 10.7279Z" fill="white"/>
<path d="M169.548 8.34839V13.1069H168.319V11.2208H166.568V13.1069H165.339V8.34839H166.568V10.1079H168.319V8.34839H169.548Z" fill="white"/>
<path d="M175.212 10.7279C175.212 12.1409 174.38 13.1938 172.853 13.1938C171.327 13.1938 170.494 12.1409 170.494 10.7279C170.494 9.31515 171.327 8.26196 172.853 8.26196C174.38 8.26196 175.212 9.31515 175.212 10.7279ZM173.957 10.7279C173.957 9.9283 173.587 9.3551 172.854 9.3551C172.12 9.3551 171.75 9.92164 171.75 10.7279C171.75 11.5275 172.12 12.1007 172.854 12.1007C173.587 12.1007 173.957 11.5275 173.957 10.7279Z" fill="white"/>
<path d="M178.418 8.34839C179.535 8.34839 180.183 8.92159 180.183 9.91457C180.183 10.9211 179.535 11.5074 178.418 11.5074H177.387V13.1069H176.158V8.34839H178.418ZM178.26 10.4478C178.742 10.4478 178.927 10.2747 178.927 9.93455C178.927 9.59467 178.742 9.42821 178.26 9.42821H177.387V10.4478H178.26V10.4478Z" fill="white"/>
<path d="M182.358 11.2141V12.014H184.81V13.1069H181.129V8.34839H184.75V9.44152H182.358V10.1479H184.182V11.2141H182.358Z" fill="white"/>
<path d="M190.625 8.34839V13.1069H189.495V9.88794H189.31L188.775 11.6006H187.573L187.038 9.88794H186.852V13.1069H185.722V8.34839H187.56L188.081 10.0744H188.267L188.788 8.34839H190.625V8.34839Z" fill="white"/>
<path d="M196.289 10.7279C196.289 12.1409 195.457 13.1938 193.931 13.1938C192.404 13.1938 191.572 12.1409 191.572 10.7279C191.572 9.31515 192.404 8.26196 193.931 8.26196C195.457 8.26196 196.289 9.31515 196.289 10.7279ZM195.034 10.7279C195.034 9.9283 194.664 9.3551 193.931 9.3551C193.197 9.3551 192.827 9.92164 192.827 10.7279C192.827 11.5275 193.197 12.1007 193.931 12.1007C194.664 12.1007 195.034 11.5275 195.034 10.7279Z" fill="white"/>
<path d="M201.444 8.34839V13.1069H200.215V11.2208H198.464V13.1069H197.235V8.34839H198.464V10.1079H200.215V8.34839H201.444Z" fill="white"/>
<path d="M206.237 9.44152H204.823V13.1069H203.594V9.44152H202.186V8.34839H206.237V9.44152V9.44152Z" fill="white"/>
<path d="M211.187 8.34839V13.1069H209.958V11.2208H208.207V13.1069H206.978V8.34839H208.207V10.1079H209.958V8.34839H211.187Z" fill="white"/>
<path d="M214.373 9.84798C215.529 9.84798 216.19 10.4412 216.19 11.4605C216.19 12.5004 215.529 13.1066 214.373 13.1066H212.337V8.34839H213.566V9.84798H214.373ZM214.188 12.0473C214.737 12.0473 214.934 11.8475 214.934 11.4741C214.934 11.1007 214.736 10.9075 214.188 10.9075H213.566V12.047H214.188V12.0473ZM217.875 13.1069H216.646V8.34839H217.875V13.1069Z" fill="white"/>
<path d="M220.15 8.34829V11.3539H220.335L221.729 8.34829H223.308V13.1068H222.185V10.1012H222L220.606 13.1068H219.026V8.34829H220.15ZM219.859 7.08203H220.731C220.777 7.22214 220.883 7.38861 221.167 7.38861C221.451 7.38861 221.557 7.22214 221.604 7.08203H222.475C222.396 7.69491 221.98 8.10164 221.167 8.10164C220.355 8.10164 219.938 7.69519 219.859 7.08203Z" fill="white"/>
<path d="M147.342 16.4373C146.985 16.4373 146.695 16.5372 146.641 16.8637H145.366C145.452 15.8841 146.225 15.3508 147.368 15.3508C148.511 15.3508 149.218 15.8841 149.218 16.677C149.218 17.1703 148.987 17.4569 148.756 17.5834V17.7702C149.133 17.9033 149.377 18.2302 149.377 18.7898C149.377 19.6429 148.611 20.276 147.362 20.276C145.988 20.276 145.3 19.6762 145.201 18.6566H146.496C146.569 18.9831 146.834 19.1829 147.355 19.1829C147.811 19.1829 148.089 19.0031 148.089 18.7298C148.089 18.4432 147.871 18.2898 147.422 18.2898H146.768V17.2302H147.422C147.838 17.2302 147.957 17.0502 147.957 16.8302C147.957 16.5638 147.665 16.4373 147.342 16.4373Z" fill="white"/>
<path d="M154.651 20.1899H153.429L153.085 18.9572H151.5L151.162 20.1899H149.966L151.38 15.4314H153.237L154.651 20.1899ZM151.763 17.9839H152.814L152.437 16.6042H152.147L151.763 17.9839Z" fill="white"/>
<path d="M158.841 17.8305C159.126 17.9706 159.43 18.3238 159.43 18.7902C159.43 19.5898 158.927 20.1899 157.791 20.1899H155.405V15.4312H157.718C158.795 15.4312 159.304 16.0177 159.304 16.7307C159.304 17.1571 159.106 17.4906 158.841 17.6438V17.8305ZM156.634 17.2509H157.553C157.817 17.2509 158.042 17.1574 158.042 16.8445C158.042 16.5312 157.804 16.4311 157.54 16.4311H156.634V17.2509ZM157.593 19.1703C157.877 19.1703 158.168 19.0637 158.168 18.7239C158.168 18.3707 157.923 18.2506 157.612 18.2506H156.634V19.1703H157.593Z" fill="white"/>
<path d="M164.928 17.8104C164.928 19.2235 164.096 20.2764 162.57 20.2764C161.043 20.2764 160.211 19.2235 160.211 17.8104C160.211 16.3977 161.043 15.3445 162.57 15.3445C164.096 15.3445 164.928 16.3977 164.928 17.8104ZM163.673 17.8104C163.673 17.0108 163.303 16.4376 162.57 16.4376C161.836 16.4376 161.466 17.0042 161.466 17.8104C161.466 18.61 161.836 19.1832 162.57 19.1832C163.303 19.1832 163.673 18.6103 163.673 17.8104Z" fill="white"/>
<path d="M166.582 20.1899V21.3563H165.392V19.0968H165.881C166.166 18.6437 166.396 17.9237 166.396 16.8841V15.4312H169.885V19.0968H170.552V21.3563H169.363V20.1899H166.582ZM168.696 16.5243H167.5V16.8841C167.5 17.9237 167.355 18.6434 167.084 19.0968H168.696V16.5243Z" fill="white"/>
</svg>
