<svg width="238" height="60" viewBox="0 0 238 60" fill="none" xmlns="http://www.w3.org/2000/svg">
<path d="M29.4554 1.87112L29.4558 1.87112L217.328 1.61606C218.654 1.61427 219.928 2.13989 220.867 3.07721L227.729 9.92646L227.736 9.93363L227.743 9.94064L234.692 16.6009C235.675 17.5428 236.231 18.8447 236.233 20.2059L236.242 29.8313L236.242 29.8414L236.242 29.8516L236.446 39.4748C236.475 40.8357 235.948 42.1496 234.986 43.1131L228.186 49.9256L228.179 49.9328L228.172 49.9401L221.514 56.8869C220.571 57.8707 219.267 58.4271 217.905 58.4271L30.1032 58.4385L30.0926 58.4385L30.0821 58.4387L20.4588 58.6429C19.0979 58.6718 17.784 58.1445 16.8206 57.1829L10.008 50.3831L10.0008 50.376L9.99351 50.3689L3.04449 43.7087C2.06174 42.7668 1.50551 41.4649 1.50423 40.1037L1.49517 30.4783L1.49517 30.4681L1.49495 30.458L1.29076 20.8348C1.26188 19.4739 1.78914 18.16 2.75078 17.1965L9.55055 10.3839L9.55771 10.3768L9.56472 10.3695L16.225 3.42043C17.1669 2.43768 18.4688 1.88145 19.83 1.88017L29.4554 1.87112Z" stroke="white" stroke-width="2"/>
</svg>
